<?xml version="1.0" standalone="no"?>
<!DOCTYPE svg PUBLIC "-//W3C//DTD SVG 20010904//EN"
 "http://www.w3.org/TR/2001/REC-SVG-20010904/DTD/svg10.dtd">
<svg version="1.0" xmlns="http://www.w3.org/2000/svg"
 width="1920.000000pt" height="1920.000000pt" viewBox="0 0 1920.000000 1920.000000"
 preserveAspectRatio="xMidYMid meet">

<g transform="translate(0.000000,1920.000000) scale(0.100000,-0.100000)"
fill="#FF0000" stroke="none">
<path d="M9435 14694 c-1169 -48 -2223 -452 -3115 -1195 -160 -133 -486 -459
-619 -619 -423 -507 -730 -1056 -931 -1660 -183 -550 -262 -1041 -262 -1620 0
-579 79 -1070 262 -1620 201 -604 508 -1153 931 -1660 133 -160 459 -486 619
-619 789 -658 1706 -1050 2720 -1165 344 -40 767 -39 1124 0 1575 173 2987
1080 3806 2444 698 1162 901 2548 568 3875 -184 734 -537 1423 -1039 2025
-133 160 -459 486 -619 619 -830 692 -1822 1098 -2880 1180 -147 12 -451 19
-565 15z m-1382 -2662 c133 -125 415 -389 627 -587 211 -198 503 -471 648
-607 146 -137 268 -248 272 -248 4 0 126 111 272 248 145 136 437 409 648 607
212 198 494 462 627 587 133 126 248 228 255 227 7 0 230 -233 495 -517 l483
-517 -88 -85 c-48 -47 -294 -279 -547 -515 -934 -874 -1085 -1016 -1085 -1025
0 -9 151 -151 1085 -1025 253 -236 499 -468 547 -515 l88 -85 -128 -135 c-70
-75 -288 -308 -485 -518 -197 -210 -362 -382 -367 -382 -5 0 -125 109 -267
242 -142 133 -460 431 -707 662 -737 690 -819 766 -826 766 -7 0 -99 -85 -761
-705 -211 -198 -494 -463 -629 -589 -135 -126 -279 -262 -321 -303 -42 -40
-83 -73 -90 -72 -8 0 -99 93 -204 205 -104 113 -322 346 -482 517 -161 172
-292 314 -292 317 1 3 42 43 93 90 239 224 1044 976 1318 1234 170 158 308
292 308 296 0 4 -138 138 -308 296 -274 258 -1079 1010 -1318 1234 -51 47 -92
87 -93 90 0 3 131 145 292 317 160 171 378 404 482 517 105 112 196 205 203
205 7 1 122 -101 255 -227z"/>
</g>
</svg>
